<?xml version="1.0" standalone="no"?>
<!DOCTYPE svg PUBLIC "-//W3C//DTD SVG 20010904//EN"
 "http://www.w3.org/TR/2001/REC-SVG-20010904/DTD/svg10.dtd">
<svg version="1.0" xmlns="http://www.w3.org/2000/svg"
 width="1200.000000pt" height="630.000000pt" viewBox="0 0 1200.000000 630.000000"
 preserveAspectRatio="xMidYMid meet">

<g transform="translate(0.000000,630.000000) scale(0.100000,-0.100000)"
fill="#000000" stroke="none">
<path d="M5800 6294 c-25 -3 -117 -13 -205 -24 -736 -92 -1423 -452 -1926
-1008 -436 -481 -703 -1059 -791 -1712 -31 -233 -31 -567 0 -800 102 -757 453
-1427 1010 -1931 719 -652 1662 -927 2647 -773 245 39 583 145 805 252 344
167 626 367 885 627 503 503 800 1108 897 1826 31 232 31 566 0 799 -88 653
-355 1231 -791 1712 -501 554 -1178 909 -1921 1008 -149 20 -503 34 -610 24z
m-240 -2035 l0 -569 -44 0 c-109 0 -268 73 -361 166 -185 185 -223 464 -93
693 42 75 154 183 225 219 84 43 232 78 266 64 4 -2 7 -259 7 -573z m1514
-146 c89 -22 164 -64 241 -136 77 -72 125 -143 163 -245 24 -64 25 -79 30
-328 l4 -262 67 -4 c78 -5 129 -27 162 -71 l24 -32 0 -605 0 -605 -25 -33
c-52 -71 -8 -67 -798 -70 -505 -2 -725 1 -755 9 -56 15 -104 67 -112 122 -4
24 -7 297 -8 608 l-2 565 27 41 c35 53 80 73 162 73 56 0 66 3 67 18 0 9 4
130 9 267 9 271 15 307 76 412 74 128 202 231 331 269 119 35 218 37 337 7z
m-1516 -1245 l2 -638 -655 0 -655 0 6 63 c11 125 36 250 70 349 153 454 560
788 1040 852 54 8 119 13 144 12 l45 -1 3 -637z"/>
<path d="M6799 3925 c-102 -37 -174 -96 -225 -182 -47 -81 -54 -128 -54 -375
l0 -228 400 0 400 0 0 204 c0 294 -20 374 -119 474 -80 82 -177 122 -288 121
-43 0 -94 -6 -114 -14z"/>
<path d="M6920 2404 l0 -345 23 7 c60 18 77 64 77 215 0 105 0 105 31 135 79
75 80 215 2 286 -24 22 -86 48 -113 48 -20 0 -20 -5 -20 -346z"/>
</g>
</svg>
